<svg width="64" height="64" viewBox="0 0 64 64" fill="none" xmlns="http://www.w3.org/2000/svg">
<g filter="url(#filter0_d_704_5114)">
<rect x="12" y="6" width="40" height="40" rx="12" fill="url(#paint0_radial_704_5114)"/>
<rect x="12" y="6" width="40" height="40" rx="12" fill="url(#paint1_radial_704_5114)"/>
<rect x="12" y="6" width="40" height="40" rx="12" fill="url(#paint2_radial_704_5114)"/>
<path d="M32.0001 36.8332C29.0844 36.8332 28.6993 36.8205 27.533 36.768C26.6344 36.7489 25.7455 36.5786 24.9034 36.2644C24.1803 35.9926 23.5255 35.566 22.9847 35.0144C22.4334 34.4732 22.007 33.8181 21.7355 33.0948C21.4213 32.2527 21.251 31.3638 21.2319 30.4652C21.1794 29.3006 21.1667 28.9147 21.1667 25.9998C21.1667 23.1045 21.1794 22.7151 21.2319 21.5328C21.2501 20.6342 21.42 19.7451 21.7347 18.9032C22.0074 18.1804 22.4343 17.5256 22.9856 16.9845C23.5264 16.4331 24.1812 16.0067 24.9042 15.7353C25.7463 15.4208 26.6353 15.2506 27.5339 15.2317C28.6993 15.1792 29.0852 15.1665 32.0001 15.1665C34.9149 15.1665 35.3009 15.1792 36.4646 15.2317C37.364 15.2507 38.2538 15.421 39.0968 15.7353C39.8191 16.007 40.4734 16.4334 41.0138 16.9845C41.5651 17.5256 41.9919 18.1804 42.2647 18.9032C42.5771 19.7457 42.7472 20.6344 42.7682 21.5328C42.8207 22.6991 42.8334 23.0884 42.8334 25.9998C42.8334 28.9113 42.8207 29.3006 42.7691 30.4669C42.748 31.365 42.5778 32.2534 42.2655 33.0957C41.9868 33.8152 41.5611 34.4686 41.0157 35.0144C40.4702 35.5601 39.817 35.9862 39.0976 36.2653C38.2549 36.5794 37.3654 36.7497 36.4663 36.7688C35.3009 36.8213 34.9149 36.8332 32.0001 36.8332ZM31.0293 17.1131C29.0158 17.1131 28.6341 17.1284 27.6236 17.1741C26.9364 17.1819 26.2558 17.3085 25.6118 17.5481C25.1412 17.7219 24.7154 17.999 24.366 18.359C24.006 18.7084 23.729 19.1341 23.5552 19.6048C23.3162 20.2487 23.1899 20.9289 23.1819 21.6157C23.1303 22.7524 23.1193 23.0943 23.1193 25.9922C23.1193 28.8901 23.1303 29.2338 23.1819 30.3696C23.1899 31.0563 23.3162 31.7366 23.5552 32.3805C23.729 32.8509 24.0061 33.2763 24.366 33.6255C24.7154 33.9854 25.1412 34.2625 25.6118 34.4363C26.2562 34.6745 26.9366 34.8007 27.6236 34.8095C28.7738 34.862 29.1174 34.873 32.0009 34.873C34.8845 34.873 35.2272 34.862 36.3783 34.8095C37.065 34.8015 37.7453 34.6753 38.3892 34.4363C38.8562 34.256 39.2803 33.98 39.6343 33.6261C39.9883 33.2722 40.2645 32.8482 40.445 32.3813C40.684 31.7374 40.8102 31.0572 40.8182 30.3704C40.8707 29.2202 40.8817 28.8766 40.8817 25.9948C40.8817 23.1129 40.8707 22.7693 40.8182 21.6191C40.8102 20.9323 40.684 20.2521 40.445 19.6082C40.271 19.1376 39.9939 18.712 39.6342 18.3623C39.2849 18.0023 38.8591 17.7255 38.3884 17.5524C37.7445 17.3134 37.0642 17.1871 36.3774 17.1791C35.2408 17.1275 34.8988 17.1165 32.0001 17.1165H31.0293V17.1131ZM32.0001 31.5621C30.8998 31.5621 29.8242 31.2358 28.9093 30.6245C27.9944 30.0132 27.2814 29.1443 26.8604 28.1277C26.4393 27.1111 26.3292 25.9925 26.544 24.9134C26.7587 23.8342 27.2886 22.843 28.0667 22.065C28.8448 21.287 29.8361 20.7573 30.9153 20.5427C31.9945 20.3281 33.1131 20.4384 34.1296 20.8596C35.1461 21.2808 36.0149 21.994 36.626 22.9089C37.2372 23.8239 37.5633 24.8995 37.5632 25.9998C37.5611 27.4746 36.9744 28.8883 35.9315 29.931C34.8886 30.9737 33.4748 31.5603 32.0001 31.5621ZM32.0001 22.3884C31.2861 22.3888 30.5882 22.6008 29.9947 22.9977C29.4012 23.3946 28.9387 23.9586 28.6657 24.6183C28.3926 25.278 28.3213 26.0039 28.4607 26.7041C28.6002 27.4043 28.9441 28.0475 29.449 28.5523C29.954 29.0571 30.5972 29.4009 31.2975 29.5402C31.9978 29.6795 32.7236 29.608 33.3833 29.3348C34.0429 29.0616 34.6068 28.5989 35.0035 28.0053C35.4003 27.4117 35.6122 26.7138 35.6123 25.9998C35.6112 25.0423 35.2302 24.1243 34.553 23.4474C33.8757 22.7705 32.9576 22.39 32.0001 22.3893V22.3884ZM37.7832 21.5142C37.526 21.514 37.2746 21.4375 37.0609 21.2944C36.8471 21.1513 36.6806 20.948 36.5825 20.7103C36.4843 20.4725 36.4589 20.211 36.5094 19.9588C36.5599 19.7066 36.6841 19.475 36.8663 19.2934C37.0485 19.1118 37.2805 18.9884 37.5328 18.9387C37.7852 18.889 38.0467 18.9152 38.2841 19.0142C38.5215 19.1131 38.7243 19.2803 38.8667 19.4945C39.0091 19.7087 39.0847 19.9603 39.0841 20.2175C39.0829 20.5618 38.9454 20.8916 38.7016 21.1346C38.4577 21.3777 38.1275 21.5142 37.7832 21.5142Z" fill="white"/>
</g>
<defs>
<filter id="filter0_d_704_5114" x="0" y="0" width="64" height="64" filterUnits="userSpaceOnUse" color-interpolation-filters="sRGB">
<feFlood flood-opacity="0" result="BackgroundImageFix"/>
<feColorMatrix in="SourceAlpha" type="matrix" values="0 0 0 0 0 0 0 0 0 0 0 0 0 0 0 0 0 0 127 0" result="hardAlpha"/>
<feOffset dy="6"/>
<feGaussianBlur stdDeviation="6"/>
<feColorMatrix type="matrix" values="0 0 0 0 0.882353 0 0 0 0 0.258824 0 0 0 0 0.364706 0 0 0 0.2 0"/>
<feBlend mode="normal" in2="BackgroundImageFix" result="effect1_dropShadow_704_5114"/>
<feBlend mode="normal" in="SourceGraphic" in2="effect1_dropShadow_704_5114" result="shape"/>
</filter>
<radialGradient id="paint0_radial_704_5114" cx="0" cy="0" r="1" gradientUnits="userSpaceOnUse" gradientTransform="translate(26.2857 36) rotate(-55.3758) scale(36.4566)">
<stop stop-color="#B13589"/>
<stop offset="0.79309" stop-color="#C62F94"/>
<stop offset="1" stop-color="#8A3AC8"/>
</radialGradient>
<radialGradient id="paint1_radial_704_5114" cx="0" cy="0" r="1" gradientUnits="userSpaceOnUse" gradientTransform="translate(24.8571 47.4286) rotate(-65.1363) scale(32.2775)">
<stop stop-color="#E0E8B7"/>
<stop offset="0.444662" stop-color="#FB8A2E"/>
<stop offset="0.71474" stop-color="#E2425C"/>
<stop offset="1" stop-color="#E2425C" stop-opacity="0"/>
</radialGradient>
<radialGradient id="paint2_radial_704_5114" cx="0" cy="0" r="1" gradientUnits="userSpaceOnUse" gradientTransform="translate(9.85715 7.42857) rotate(-8.1301) scale(55.5584 11.8834)">
<stop offset="0.156701" stop-color="#406ADC"/>
<stop offset="0.467799" stop-color="#6A45BE"/>
<stop offset="1" stop-color="#6A45BE" stop-opacity="0"/>
</radialGradient>
</defs>
</svg>
