<svg width="64" height="64" viewBox="0 0 64 64" fill="none" xmlns="http://www.w3.org/2000/svg">
<g filter="url(#filter0_d_704_5108)">
<rect x="12" y="6" width="40" height="40" rx="12" fill="url(#paint0_linear_704_5108)"/>
</g>
<path fill-rule="evenodd" clip-rule="evenodd" d="M24.8808 38.3035V34.0343C23.5338 33.0379 22.4369 31.742 21.6766 30.2489C20.9163 28.7558 20.5135 27.1064 20.5 25.431C20.5 19.3018 25.825 14.3335 32.3942 14.3335C38.9633 14.3335 44.2875 19.3027 44.2875 25.431C44.2875 31.5593 38.9625 36.5285 32.3933 36.5285C31.2024 36.5296 30.0171 36.3633 28.8725 36.0343L24.8808 38.3035ZM24.7092 29.1826L31.1259 22.3909L34.2017 25.5376L39.975 22.3909L33.5967 29.1817L30.5467 25.9792L24.7092 29.1826Z" fill="white"/>
<defs>
<filter id="filter0_d_704_5108" x="0" y="0" width="64" height="64" filterUnits="userSpaceOnUse" color-interpolation-filters="sRGB">
<feFlood flood-opacity="0" result="BackgroundImageFix"/>
<feColorMatrix in="SourceAlpha" type="matrix" values="0 0 0 0 0 0 0 0 0 0 0 0 0 0 0 0 0 0 127 0" result="hardAlpha"/>
<feOffset dy="6"/>
<feGaussianBlur stdDeviation="6"/>
<feColorMatrix type="matrix" values="0 0 0 0 0.482353 0 0 0 0 0.282353 0 0 0 0 1 0 0 0 0.2 0"/>
<feBlend mode="normal" in2="BackgroundImageFix" result="effect1_dropShadow_704_5108"/>
<feBlend mode="normal" in="SourceGraphic" in2="effect1_dropShadow_704_5108" result="shape"/>
</filter>
<linearGradient id="paint0_linear_704_5108" x1="44.8757" y1="8.20118" x2="22.6262" y2="45.6354" gradientUnits="userSpaceOnUse">
<stop stop-color="#FD607A"/>
<stop offset="0.463542" stop-color="#913BFF"/>
<stop offset="1" stop-color="#1A7BFF"/>
</linearGradient>
</defs>
</svg>
