<svg width="64" height="64" viewBox="0 0 64 64" fill="none" xmlns="http://www.w3.org/2000/svg">
<g filter="url(#filter0_d_704_5126)">
<rect x="12" y="6" width="40" height="40" rx="12" fill="url(#paint0_linear_704_5126)"/>
</g>
<path fill-rule="evenodd" clip-rule="evenodd" d="M27.8543 14.1631C29.0675 14.1631 30.2052 14.467 31.1863 14.9983C31.5145 14.9665 31.8472 14.9503 32.1838 14.9503C37.8354 14.9503 42.417 19.5318 42.417 25.1835C42.417 25.6883 42.3804 26.1846 42.3098 26.6698C42.8777 27.6157 43.2042 28.723 43.2042 29.9066C43.2042 33.3845 40.3848 36.2039 36.9068 36.2039C35.7233 36.2039 34.616 35.8774 33.6701 35.3096C33.1848 35.3802 32.6886 35.4167 32.1838 35.4167C26.5321 35.4167 21.9505 30.8352 21.9505 25.1835C21.9505 24.6537 21.9908 24.1333 22.0684 23.6253C21.493 22.6954 21.1633 21.6141 21.1633 20.4605C21.1633 16.9825 24.159 14.1631 27.8543 14.1631ZM35.5651 21.5101C36.1197 20.4605 33.9015 19.6733 32.2379 19.6733C30.5743 19.6733 28.3562 20.7229 28.3562 22.5596C28.3562 24.3964 29.7425 25.0523 31.1289 25.7083C31.4061 25.8395 31.7181 25.9543 32.03 26.0691C32.9658 26.4135 33.9015 26.7579 33.9015 27.5451C33.9015 28.5946 32.7925 28.857 31.6834 28.857C31.2865 28.857 30.8292 28.6688 30.3764 28.4825C29.5639 28.1481 28.7657 27.8196 28.3562 28.5946C27.8017 29.6442 29.448 30.6938 31.6834 30.6938C34.1788 30.6938 36.1197 29.6442 36.1197 27.5451C36.1197 25.5776 33.9276 24.7627 32.5111 24.2361C32.4162 24.2009 32.3249 24.1669 32.2379 24.134C30.8516 23.6092 30.5743 23.0844 30.5743 22.5596C30.5743 22.0349 31.1289 21.5101 32.2379 21.5101C32.6076 21.5101 33.0163 21.6695 33.425 21.8289C34.2424 22.1477 35.0598 22.4664 35.5651 21.5101Z" fill="white"/>
<defs>
<filter id="filter0_d_704_5126" x="0" y="0" width="64" height="64" filterUnits="userSpaceOnUse" color-interpolation-filters="sRGB">
<feFlood flood-opacity="0" result="BackgroundImageFix"/>
<feColorMatrix in="SourceAlpha" type="matrix" values="0 0 0 0 0 0 0 0 0 0 0 0 0 0 0 0 0 0 127 0" result="hardAlpha"/>
<feOffset dy="6"/>
<feGaussianBlur stdDeviation="6"/>
<feColorMatrix type="matrix" values="0 0 0 0 0.113725 0 0 0 0 0.498039 0 0 0 0 0.847059 0 0 0 0.2 0"/>
<feBlend mode="normal" in2="BackgroundImageFix" result="effect1_dropShadow_704_5126"/>
<feBlend mode="normal" in="SourceGraphic" in2="effect1_dropShadow_704_5126" result="shape"/>
</filter>
<linearGradient id="paint0_linear_704_5126" x1="16.4444" y1="13.7778" x2="46.4444" y2="38.7778" gradientUnits="userSpaceOnUse">
<stop stop-color="#58D3EE"/>
<stop offset="1" stop-color="#0B66D1"/>
</linearGradient>
</defs>
</svg>
